<svg width="70" height="70" viewBox="0 0 70 70" fill="none" xmlns="http://www.w3.org/2000/svg">
<path fill-rule="evenodd" clip-rule="evenodd" d="M20.4247 11.9612L17.675 8.17902C17.1677 7.48124 16.4043 7.01324 15.5524 6.87776C14.7004 6.74228 13.8295 6.9504 13.1308 7.45641L13.1301 7.45714C12.449 7.95038 11.9854 8.68816 11.8364 9.51576C11.6874 10.3434 11.8646 11.1965 12.3309 11.8963L22.9862 27.8826C23.1486 28.1204 23.3982 28.2846 23.681 28.3396C23.9637 28.3945 24.2566 28.3357 24.4963 28.1759C24.7359 28.0162 24.9028 27.7684 24.9609 27.4863C25.0189 27.2042 24.9633 26.9106 24.8062 26.6692L14.1517 10.683C13.9987 10.4539 13.9405 10.1743 13.9893 9.9032C14.0381 9.63206 14.1901 9.3904 14.4134 9.22902L14.4142 9.22829C14.5276 9.14592 14.6562 9.08671 14.7925 9.05405C14.9289 9.02138 15.0703 9.01589 15.2088 9.0379C15.3473 9.0599 15.4801 9.10897 15.5996 9.1823C15.7191 9.25563 15.823 9.35178 15.9053 9.46527L18.655 13.2475C18.8256 13.4821 19.0824 13.6394 19.3689 13.6848C19.6555 13.7301 19.9483 13.6597 20.183 13.4892C20.4176 13.3186 20.5749 13.0618 20.6203 12.7753C20.6656 12.4887 20.5952 12.1959 20.4247 11.9612ZM27.1469 20.3313L23.8379 16.5958C23.6748 16.4119 23.5208 16.2201 23.3763 16.0212L23.2094 15.7915C23.0388 15.5568 22.782 15.3995 22.4954 15.3542C22.2089 15.3089 21.9161 15.3792 21.6814 15.5498C21.4467 15.7204 21.2894 15.9772 21.2441 16.2637C21.1987 16.5503 21.2691 16.8431 21.4397 17.0778L21.6067 17.3075C21.7926 17.5634 21.9909 17.8099 22.2009 18.0461L25.5099 21.7816C25.704 21.9918 25.9728 22.1176 26.2586 22.1319C26.5445 22.1462 26.8245 22.048 27.0387 21.8582C27.2529 21.6684 27.3841 21.4023 27.4044 21.1168C27.4246 20.8314 27.3322 20.5494 27.1469 20.3313ZM52.2594 15.4875L44.3085 26.6408C44.151 26.8774 44.0917 27.1659 44.1431 27.4455C44.1945 27.725 44.3527 27.9736 44.5841 28.1386C44.8155 28.3036 45.102 28.3721 45.383 28.3296C45.6641 28.2872 45.9176 28.137 46.0899 27.911L54.0407 16.7577C54.1241 16.6407 54.1837 16.5085 54.216 16.3685C54.2483 16.2285 54.2527 16.0835 54.2289 15.9418C54.2052 15.8002 54.1538 15.6645 54.0776 15.5427C54.0015 15.4209 53.9021 15.3153 53.7851 15.2319C53.6682 15.1485 53.5359 15.0889 53.396 15.0566C53.256 15.0243 53.111 15.0199 52.9693 15.0437C52.8276 15.0674 52.692 15.1188 52.5702 15.195C52.4484 15.2711 52.3428 15.3705 52.2594 15.4875ZM43.2425 22.3081L47.2325 18.0519C47.4425 17.8281 47.6415 17.5947 47.8289 17.3527L53.741 9.73214C53.9105 9.5135 54.1583 9.36939 54.4322 9.33033C54.706 9.29127 54.9843 9.36033 55.2081 9.52287L55.2103 9.5236C55.685 9.86777 55.7936 10.5306 55.4531 11.0082L54.9595 11.7009C54.7913 11.9372 54.7238 12.2305 54.7718 12.5166C54.8198 12.8026 54.9794 13.0578 55.2154 13.2263C55.7069 13.5763 56.3901 13.4618 56.7408 12.9704L57.2345 12.2777C57.733 11.5782 57.9349 10.7101 57.7961 9.86247C57.6574 9.01483 57.1892 8.25639 56.4936 7.75246L56.4922 7.751C55.8082 7.25567 54.9585 7.04562 54.1225 7.16522C53.2866 7.28482 52.5298 7.7247 52.0122 8.39193L46.1008 16.0117C45.955 16.2006 45.7997 16.3814 45.6371 16.5557L41.6463 20.8118C41.4481 21.0236 41.342 21.3054 41.3513 21.5954C41.3606 21.8853 41.4845 22.1597 41.6959 22.3584C41.9078 22.5565 42.1897 22.6625 42.4796 22.6531C42.7696 22.6437 43.0439 22.5196 43.2425 22.3081Z" fill="#C1272D"/>
<path fill-rule="evenodd" clip-rule="evenodd" d="M41.6012 40.0343C41.7626 33.7061 42.5738 27.4112 44.022 21.2488C44.0711 21.0393 44.0573 20.8199 43.9823 20.6182C43.9072 20.4165 43.7744 20.2414 43.6004 20.1148C43.4263 19.9882 43.2188 19.9158 43.0038 19.9066C42.7888 19.8975 42.5758 19.9519 42.3916 20.0632C40.9734 20.9199 39.5376 21.5485 38.0917 21.9393C37.8152 22.018 37.5808 22.2025 37.4392 22.4527C37.2976 22.7029 37.2603 22.9988 37.3352 23.2764C37.4102 23.554 37.5914 23.7909 37.8397 23.9358C38.088 24.0808 38.3834 24.1222 38.6619 24.051C39.5924 23.7978 40.5008 23.4693 41.3781 23.0688C40.2165 28.6348 39.5593 34.2941 39.4144 39.9782C39.4078 40.2676 39.5162 40.5479 39.7159 40.7576C39.9157 40.9672 40.1904 41.0892 40.4798 41.0966C40.7693 41.104 41.0499 40.9964 41.2601 40.7972C41.4703 40.5981 41.593 40.3237 41.6012 40.0343ZM31.0946 21.94C29.6822 21.5536 28.2786 20.9309 26.8932 20.0697C26.7111 19.9567 26.4999 19.8996 26.2856 19.9056C26.0714 19.9116 25.8637 19.9803 25.6882 20.1034C25.5128 20.2264 25.3773 20.3983 25.2987 20.5976C25.2201 20.797 25.2017 21.015 25.246 21.2247C26.5257 27.2892 27.0689 33.3537 27.0937 39.4182C27.1051 39.7013 27.2259 39.969 27.4307 40.1649C27.6355 40.3609 27.9083 40.4697 28.1917 40.4686C28.4751 40.4674 28.747 40.3564 28.9502 40.1589C29.1534 39.9613 29.272 39.6927 29.2812 39.4094C29.2593 33.9611 28.8262 28.5128 27.836 23.0644C28.7008 23.4669 29.5976 23.7966 30.5171 24.0503C30.797 24.1268 31.0957 24.0891 31.3478 23.9454C31.5998 23.8017 31.7844 23.5637 31.861 23.2839C31.9376 23.0041 31.8998 22.7053 31.7561 22.4533C31.6124 22.2012 31.3745 22.0166 31.0946 21.94Z" fill="#C1272D"/>
<path fill-rule="evenodd" clip-rule="evenodd" d="M34.5026 16.3376C31.8747 16.3376 29.6267 18.835 29.6267 22.0302C29.6267 25.2254 31.8747 27.7235 34.5026 27.7235C37.1298 27.7235 39.3778 25.2254 39.3778 22.0302C39.3778 18.835 37.1298 16.3376 34.5026 16.3376ZM34.5026 18.5251C36.0506 18.5251 37.1903 20.1475 37.1903 22.0302C37.1903 23.9136 36.0506 25.536 34.5026 25.536C32.9539 25.536 31.8142 23.9136 31.8142 22.0302C31.8142 20.1475 32.9539 18.5251 34.5026 18.5251ZM1.45825 13.8402H2.91659C3.20667 13.8402 3.48487 13.725 3.68998 13.5198C3.8951 13.3147 4.01034 13.0365 4.01034 12.7464C4.01034 12.4564 3.8951 12.1782 3.68998 11.973C3.48487 11.7679 3.20667 11.6527 2.91659 11.6527H1.45825C1.16817 11.6527 0.889972 11.7679 0.684854 11.973C0.479736 12.1782 0.364502 12.4564 0.364502 12.7464C0.364502 13.0365 0.479736 13.3147 0.684854 13.5198C0.889972 13.725 1.16817 13.8402 1.45825 13.8402ZM59.7573 6.2255V22.5384C59.7572 22.9693 59.842 23.3961 60.0069 23.7942C60.1718 24.1924 60.4134 24.5541 60.7182 24.8588C61.0229 25.1635 61.3846 25.4052 61.7828 25.5701C62.1809 25.735 62.6076 25.8198 63.0386 25.8197H64.8958C65.766 25.8197 66.6006 25.474 67.216 24.8586C67.8313 24.2433 68.177 23.4087 68.177 22.5384V5.49634C68.177 4.6261 67.8313 3.7915 67.216 3.17614C66.6006 2.56079 65.766 2.21509 64.8958 2.21509H63.0386C62.7485 2.21509 62.4703 2.33032 62.2652 2.53544C62.0601 2.74056 61.9448 3.01876 61.9448 3.30884C61.9448 3.59892 62.0601 3.87712 62.2652 4.08224C62.4703 4.28735 62.7485 4.40259 63.0386 4.40259H64.8958C65.1857 4.40317 65.4635 4.51859 65.6685 4.72358C65.8735 4.92857 65.9889 5.20643 65.9895 5.49634V22.5384C65.9895 22.8285 65.8743 23.1067 65.6692 23.3118C65.464 23.5169 65.1858 23.6322 64.8958 23.6322H63.0386C62.7485 23.6322 62.4703 23.5169 62.2652 23.3118C62.0601 23.1067 61.9448 22.8285 61.9448 22.5384V6.2255C61.9345 5.94234 61.8147 5.67421 61.6107 5.47754C61.4067 5.28087 61.1344 5.17097 60.8511 5.17097C60.5677 5.17097 60.2954 5.28087 60.0914 5.47754C59.8874 5.67421 59.7677 5.94234 59.7573 6.2255Z" fill="#C1272D"/>
<path fill-rule="evenodd" clip-rule="evenodd" d="M10.2427 5.49634C10.2427 4.6261 9.89698 3.7915 9.28163 3.17614C8.66628 2.56079 7.83168 2.21509 6.96144 2.21509H5.10425C4.23401 2.21509 3.39941 2.56079 2.78405 3.17614C2.1687 3.7915 1.823 4.6261 1.823 5.49634V22.5384C1.8229 22.9693 1.90771 23.3961 2.07257 23.7942C2.23744 24.1924 2.47913 24.5541 2.78384 24.8588C3.08855 25.1635 3.45031 25.4052 3.84845 25.5701C4.2466 25.735 4.67332 25.8198 5.10425 25.8197H6.96144C7.39236 25.8198 7.81909 25.735 8.21723 25.5701C8.61537 25.4052 8.97713 25.1635 9.28184 24.8588C9.58655 24.5541 9.82825 24.1924 9.99311 23.7942C10.158 23.3961 10.2428 22.9693 10.2427 22.5384V5.49634ZM8.05519 5.49634V22.5384C8.05519 22.8285 7.93995 23.1067 7.73483 23.3118C7.52972 23.5169 7.25152 23.6322 6.96144 23.6322H5.10425C4.81434 23.6316 4.53648 23.5162 4.33149 23.3112C4.1265 23.1062 4.01108 22.8283 4.0105 22.5384V5.49634C4.01108 5.20643 4.1265 4.92857 4.33149 4.72358C4.53648 4.51859 4.81434 4.40317 5.10425 4.40259H6.96144C7.25152 4.40259 7.52972 4.51782 7.73483 4.72294C7.93995 4.92806 8.05519 5.20626 8.05519 5.49634ZM46.222 46.8649C44.679 47.8463 43.1762 48.9233 41.8367 50.3204C41.2437 50.9391 40.5037 51.3975 39.6856 51.6527C38.8675 51.908 37.998 51.9519 37.1584 51.7802L37.1562 51.7795C35.8583 51.517 34.521 51.517 33.2231 51.7802C32.3833 51.9522 31.5135 51.9085 30.6951 51.6532C29.8767 51.3979 29.1364 50.9394 28.5433 50.3204C28.3152 50.0831 28.0805 49.8521 27.8397 49.6277C27.7345 49.5299 27.6111 49.4537 27.4764 49.4036C27.3418 49.3535 27.1987 49.3304 27.0551 49.3356C26.9116 49.3408 26.7705 49.3743 26.6398 49.434C26.5092 49.4938 26.3916 49.5786 26.2938 49.6838C26.196 49.789 26.1199 49.9124 26.0698 50.0471C26.0196 50.1817 25.9965 50.3248 26.0018 50.4684C26.007 50.6119 26.0404 50.753 26.1001 50.8837C26.1599 51.0143 26.2448 51.1319 26.35 51.2297C26.5585 51.4236 26.7634 51.6249 26.9639 51.8341C27.8125 52.7193 28.8714 53.3751 30.0418 53.7406C31.2123 54.106 32.4563 54.1691 33.6577 53.9239C34.6689 53.7188 35.711 53.7186 36.7224 53.9232C37.9236 54.1689 39.1675 54.1061 40.338 53.7408C41.5084 53.3755 42.5672 52.7195 43.4154 51.8341C44.6295 50.5683 45.9974 49.6 47.3959 48.7111C47.6309 48.5511 47.7945 48.3059 47.8519 48.0274C47.9093 47.749 47.8561 47.4591 47.7035 47.2192C47.551 46.9792 47.311 46.8081 47.0345 46.742C46.758 46.6758 46.4666 46.7199 46.222 46.8649ZM38.8763 41.951C42.8051 40.0384 46.7331 38.7449 50.6611 37.9989C50.9462 37.9449 51.1981 37.7798 51.3614 37.54C51.5248 37.3003 51.5862 37.0054 51.5321 36.7203C51.4781 36.4353 51.313 36.1834 51.0732 36.0201C50.8334 35.8567 50.5386 35.7953 50.2535 35.8494C46.1417 36.6303 42.0307 37.9829 37.9189 39.9837C37.6673 40.1161 37.477 40.3412 37.3884 40.6114C37.2998 40.8816 37.3199 41.1756 37.4443 41.4313C37.5687 41.687 37.7878 41.8842 38.0551 41.9812C38.3223 42.0782 38.6169 42.0674 38.8763 41.951ZM19.6985 37.9946C23.1621 38.7179 26.6249 39.8525 30.0884 41.3794C30.3533 41.493 30.6523 41.4975 30.9205 41.3919C31.1886 41.2863 31.4043 41.0791 31.5205 40.8154C31.6368 40.5517 31.6442 40.2527 31.5413 39.9835C31.4383 39.7143 31.2333 39.4966 30.9707 39.3778C27.3628 37.7868 23.7541 36.6062 20.1455 35.8537C19.8643 35.8013 19.5738 35.8611 19.3362 36.0203C19.0986 36.1795 18.9328 36.4254 18.8743 36.7054C18.8158 36.9854 18.8694 37.2771 19.0234 37.5181C19.1775 37.7591 19.4199 37.9301 19.6985 37.9946Z" fill="#C1272D"/>
<path fill-rule="evenodd" clip-rule="evenodd" d="M24.6445 61.9122V44.9503C24.6445 44.6602 24.5292 44.382 24.3241 44.1769C24.119 43.9718 23.8408 43.8565 23.5507 43.8565C23.2606 43.8565 22.9824 43.9718 22.7773 44.1769C22.5722 44.382 22.457 44.6602 22.457 44.9503V61.9122C22.457 62.2022 22.5722 62.4804 22.7773 62.6856C22.9824 62.8907 23.2606 63.0059 23.5507 63.0059C23.8408 63.0059 24.119 62.8907 24.3241 62.6856C24.5292 62.4804 24.6445 62.2022 24.6445 61.9122ZM24.6445 40.9537C24.6443 39.5931 24.1037 38.2883 23.1416 37.3262C22.1795 36.3641 20.8747 35.8235 19.514 35.8233H19.5111C18.7932 35.8232 18.0833 35.9736 17.4271 36.2646C16.7708 36.5557 16.1829 36.9811 15.7011 37.5133C15.2193 38.0455 14.8544 38.6727 14.6299 39.3546C14.4053 40.0365 14.3262 40.7578 14.3975 41.4722L16.3925 61.4841C16.4241 61.7705 16.5674 62.0329 16.7913 62.2142C17.0152 62.3955 17.3016 62.4811 17.5883 62.4525C17.875 62.4239 18.1388 62.2833 18.3224 62.0613C18.5061 61.8393 18.5947 61.5538 18.569 61.2668L16.574 41.2549C16.5332 40.8446 16.5788 40.4304 16.7078 40.0388C16.8368 39.6472 17.0464 39.287 17.3231 38.9814C17.5998 38.6758 17.9374 38.4315 18.3143 38.2644C18.6912 38.0972 19.0989 38.0108 19.5111 38.0108H19.514C20.2945 38.011 21.0429 38.3211 21.5948 38.873C22.1467 39.4248 22.4568 40.1733 22.457 40.9537C22.457 41.2438 22.5722 41.522 22.7773 41.7271C22.9824 41.9322 23.2606 42.0475 23.5507 42.0475C23.8408 42.0475 24.119 41.9322 24.3241 41.7271C24.5292 41.522 24.6445 41.2438 24.6445 40.9537ZM47.8684 62.5516V40.9523C47.8684 40.1721 48.1783 39.424 48.73 38.8723C49.2816 38.3207 50.0298 38.0108 50.8099 38.0108H50.8121C51.2245 38.011 51.6324 38.0976 52.0094 38.265C52.3863 38.4323 52.7241 38.6768 53.0009 38.9826C53.2777 39.2884 53.4874 39.6487 53.6165 40.0404C53.7457 40.4322 53.7913 40.8466 53.7506 41.2571L51.7673 61.156C51.7416 61.443 51.8303 61.7285 52.0139 61.9505C52.1975 62.1725 52.4613 62.3131 52.748 62.3417C53.0347 62.3703 53.3211 62.2847 53.545 62.1033C53.7689 61.922 53.9122 61.6597 53.9438 61.3733L55.9272 41.4736C55.9981 40.7592 55.9187 40.0377 55.694 39.3559C55.4692 38.674 55.1042 38.0467 54.6223 37.5144C54.1405 36.9821 53.5525 36.5567 52.8963 36.2654C52.24 35.9742 51.53 35.8236 50.8121 35.8233H50.8099C49.4496 35.8233 48.145 36.3637 47.1832 37.3255C46.2213 38.2874 45.6809 39.592 45.6809 40.9523V62.5516C45.6809 62.8417 45.7962 63.1199 46.0013 63.325C46.2064 63.5301 46.4846 63.6454 46.7747 63.6454C47.0648 63.6454 47.343 63.5301 47.5481 63.325C47.7532 63.1199 47.8684 62.8417 47.8684 62.5516Z" fill="#C1272D"/>
<path fill-rule="evenodd" clip-rule="evenodd" d="M25.8854 65.7314C25.8854 64.1756 25.2674 62.6836 24.1673 61.5835C23.0672 60.4833 21.5751 59.8653 20.0193 59.8653H19.433C17.8772 59.8653 16.3852 60.4833 15.285 61.5835C14.1849 62.6836 13.5669 64.1756 13.5669 65.7314V66.691C13.5669 66.9811 13.6821 67.2593 13.8872 67.4644C14.0924 67.6695 14.3706 67.7848 14.6606 67.7848H24.7917C25.0818 67.7848 25.36 67.6695 25.5651 67.4644C25.7702 67.2593 25.8854 66.9811 25.8854 66.691V65.7314ZM23.6957 65.5973H15.7573C15.7919 64.6455 16.1943 63.7443 16.8798 63.0832C17.5654 62.4221 18.4807 62.0527 19.433 62.0528H20.0193C20.9717 62.0527 21.8871 62.4221 22.5728 63.0831C23.2585 63.7442 23.661 64.6455 23.6957 65.5973ZM57.0427 65.7314C57.0427 64.1756 56.4247 62.6836 55.3246 61.5835C54.2245 60.4833 52.7324 59.8653 51.1766 59.8653H50.5911C49.8206 59.8652 49.0578 60.0169 48.346 60.3116C47.6342 60.6064 46.9874 61.0385 46.4426 61.5832C45.8978 62.1279 45.4656 62.7746 45.1708 63.4864C44.8759 64.1982 44.7242 64.961 44.7242 65.7314V66.691C44.7242 66.9811 44.8394 67.2593 45.0445 67.4644C45.2497 67.6695 45.5279 67.7848 45.8179 67.7848H55.949C56.2391 67.7848 56.5173 67.6695 56.7224 67.4644C56.9275 67.2593 57.0427 66.9811 57.0427 66.691V65.7314ZM54.853 65.5973H46.9146C46.9493 64.6455 47.3519 63.7442 48.0376 63.0831C48.7233 62.4221 49.6386 62.0527 50.5911 62.0528H51.1766C52.129 62.0527 53.0444 62.4221 53.7301 63.0831C54.4157 63.7442 54.8183 64.6455 54.853 65.5973Z" fill="#C1272D"/>
<path fill-rule="evenodd" clip-rule="evenodd" d="M5.90845 67.7847H62.8936C63.1836 67.7847 63.4618 67.6694 63.667 67.4643C63.8721 67.2592 63.9873 66.981 63.9873 66.6909C63.9873 66.4009 63.8721 66.1227 63.667 65.9175C63.4618 65.7124 63.1836 65.5972 62.8936 65.5972H5.90845C5.61837 65.5972 5.34017 65.7124 5.13505 65.9175C4.92993 66.1227 4.8147 66.4009 4.8147 66.6909C4.8147 66.981 4.92993 67.2592 5.13505 67.4643C5.34017 67.6694 5.61837 67.7847 5.90845 67.7847ZM20.4983 56.5096H23.5506C23.8407 56.5096 24.1189 56.3944 24.324 56.1892C24.5292 55.9841 24.6444 55.7059 24.6444 55.4158C24.6444 55.1258 24.5292 54.8476 24.324 54.6424C24.1189 54.4373 23.8407 54.3221 23.5506 54.3221H20.4983C20.2083 54.3221 19.9301 54.4373 19.7249 54.6424C19.5198 54.8476 19.4046 55.1258 19.4046 55.4158C19.4046 55.7059 19.5198 55.9841 19.7249 56.1892C19.9301 56.3944 20.2083 56.5096 20.4983 56.5096ZM46.7746 56.5096H53.4385C53.7285 56.5096 54.0067 56.3944 54.2119 56.1892C54.417 55.9841 54.5322 55.7059 54.5322 55.4158C54.5322 55.1258 54.417 54.8476 54.2119 54.6424C54.0067 54.4373 53.7285 54.3221 53.4385 54.3221H46.7746C46.4845 54.3221 46.2063 54.4373 46.0012 54.6424C45.7961 54.8476 45.6808 55.1258 45.6808 55.4158C45.6808 55.7059 45.7961 55.9841 46.0012 56.1892C46.2063 56.3944 46.4845 56.5096 46.7746 56.5096ZM67.0833 13.8402H68.5417C68.8318 13.8402 69.11 13.725 69.3151 13.5199C69.5202 13.3147 69.6354 13.0365 69.6354 12.7465C69.6354 12.4564 69.5202 12.1782 69.3151 11.9731C69.11 11.7679 68.8318 11.6527 68.5417 11.6527H67.0833C66.7933 11.6527 66.5151 11.7679 66.3099 11.9731C66.1048 12.1782 65.9896 12.4564 65.9896 12.7465C65.9896 13.0365 66.1048 13.3147 66.3099 13.5199C66.5151 13.725 66.7933 13.8402 67.0833 13.8402ZM9.14886 13.8402H60.8512C61.1343 13.8299 61.4025 13.7101 61.5991 13.5061C61.7958 13.3021 61.9057 13.0298 61.9057 12.7465C61.9057 12.4631 61.7958 12.1908 61.5991 11.9868C61.4025 11.7828 61.1343 11.6631 60.8512 11.6527H9.14886C8.86569 11.6631 8.59757 11.7828 8.4009 11.9868C8.20422 12.1908 8.09433 12.4631 8.09433 12.7465C8.09433 13.0298 8.20422 13.3021 8.4009 13.5061C8.59757 13.7101 8.86569 13.8299 9.14886 13.8402Z" fill="#C1272D"/>
</svg>
