<svg width="63" height="62" viewBox="0 0 63 62" fill="none" xmlns="http://www.w3.org/2000/svg">
<path d="M0 49.3238H37.6418V62L45.4298 57.3272L53.2178 62V49.3238H62.3037V0H0V49.3238ZM50.9658 40.5156C50.8489 40.6337 50.7243 40.7427 50.601 40.8531C50.5309 40.9154 50.466 40.9816 50.3933 41.0413C50.3129 41.1088 50.2272 41.1659 50.1441 41.2295C49.0257 42.089 47.6935 42.6263 46.2917 42.7832L46.2203 42.7936C45.6929 42.8461 45.1616 42.8461 44.6341 42.7936L44.5627 42.7832C43.161 42.6261 41.8289 42.0888 40.7103 41.2295C40.6272 41.1659 40.5416 41.1075 40.4611 41.0413C40.3897 40.9816 40.3235 40.9154 40.2534 40.8531C40.1301 40.7427 40.0068 40.6337 39.8887 40.5156C38.4455 39.0611 37.6359 37.0949 37.6367 35.0458C37.6367 30.7508 41.1296 27.2579 45.4246 27.2579C49.7197 27.2579 53.2126 30.7508 53.2126 35.0458C53.2178 37.0947 52.4097 39.062 50.9658 40.5156ZM50.6218 57.4155L45.4298 54.3003L40.2378 57.4155V44.041C40.282 44.0669 40.3313 44.0838 40.3767 44.1084C40.7207 44.3005 41.075 44.4771 41.4411 44.6302L41.4904 44.6484C44.0141 45.6912 46.8482 45.6912 49.3718 44.6484L49.4211 44.6302C49.7872 44.4771 50.1415 44.3018 50.4855 44.1084C50.5309 44.0838 50.5802 44.0669 50.6244 44.041V57.4155H50.6218ZM2.59599 2.59599H59.7077V46.7278H53.2178V41.8915C54.89 40.0031 55.8134 37.5682 55.8138 35.0458C55.8138 29.3204 51.1553 24.6619 45.4298 24.6619C39.7044 24.6619 35.0459 29.3204 35.0459 35.0458C35.0459 37.6691 36.031 40.0613 37.6418 41.8915V46.7278H2.59599V2.59599Z" fill="black"/>
<path d="M14.2781 7.78796H48.0259V10.384H14.2781V7.78796ZM20.768 15.5759H41.5359V18.1719H20.768V15.5759ZM7.78809 38.9398H22.066V41.5358H7.78809V38.9398Z" fill="black"/>
</svg>
