<svg width="70" height="65" viewBox="0 0 70 65" fill="none" xmlns="http://www.w3.org/2000/svg">
<path d="M65.5682 56.0055L69.804 49.652C69.9211 49.4763 69.9884 49.2721 69.9986 49.0611C70.0088 48.8502 69.9616 48.6404 69.862 48.4542C69.7623 48.268 69.614 48.1124 69.4328 48.0038C69.2516 47.8953 69.0444 47.838 68.8332 47.838H63.5827C63.5796 45.7877 62.9883 43.7813 61.8792 42.057C60.77 40.3326 59.1895 38.9626 57.3251 38.1095C58.6777 37.1997 59.7233 35.9017 60.3241 34.3863C60.925 32.8709 61.053 31.2092 60.6914 29.6196C60.3298 28.0301 59.4954 26.5873 58.298 25.481C57.1007 24.3748 55.5965 23.6569 53.9834 23.4219C53.7912 21.5651 53.1178 19.7906 52.0297 18.2738C50.9416 16.757 49.4766 15.5504 47.7794 14.7732C49.2223 13.8157 50.3184 12.4188 50.9053 10.7895C51.4921 9.16023 51.5385 7.38524 51.0376 5.72753C50.5367 4.06983 49.515 2.61758 48.1241 1.58596C46.7332 0.554335 45.0469 -0.0017793 43.3152 7.84732e-06C41.5835 0.001795 39.8984 0.561388 38.5096 1.59588C37.1208 2.63037 36.1022 4.08472 35.6046 5.74346C35.1071 7.4022 35.1572 9.17708 35.7474 10.8051C36.3376 12.4332 37.4366 13.8278 38.8815 14.7824C37.4395 15.4426 36.1613 16.4137 35.1386 17.6259C34.2375 17.4634 33.3146 17.4635 32.4135 17.6261C31.3925 16.4129 30.115 15.4414 28.6731 14.7816C30.1178 13.8268 31.2165 12.432 31.8064 10.8039C32.3964 9.1758 32.4462 7.40096 31.9484 5.74233C31.4507 4.08371 30.4319 2.62953 29.043 1.59525C27.6541 0.560965 25.969 0.00159278 24.2373 3.39641e-06C22.5056 -0.00158599 20.8194 0.554692 19.4286 1.58642C18.0379 2.61816 17.0164 4.07046 16.5156 5.72817C16.0148 7.38588 16.0614 9.16081 16.6483 10.79C17.2353 12.4192 18.3314 13.816 19.7743 14.7734C18.0907 15.5449 16.6354 16.7392 15.5503 18.24C14.4652 19.7409 13.7871 21.4971 13.5821 23.3377C11.8605 23.3578 10.1903 23.9277 8.81548 24.9643C7.44066 26.0008 6.43321 27.4497 5.9402 29.0994C5.4472 30.7492 5.49447 32.5133 6.07511 34.1342C6.65575 35.7551 7.73935 37.148 9.1677 38.1095C7.30331 38.9626 5.72276 40.3326 4.61359 42.057C3.50443 43.7813 2.91321 45.7877 2.91007 47.838H1.1599C0.949802 47.8407 0.744265 47.8997 0.564707 48.0088C0.385149 48.1179 0.23814 48.2732 0.139 48.4584C0.0398604 48.6437 -0.0077829 48.8521 0.0010353 49.0621C0.0098535 49.272 0.0748104 49.4757 0.189137 49.652L4.42495 56.0055L0.189137 62.359C0.074912 62.5353 0.0100413 62.739 0.0012801 62.9489C-0.00748114 63.1588 0.0401875 63.3672 0.139322 63.5524C0.238457 63.7376 0.385432 63.8929 0.564945 64.002C0.744458 64.1111 0.949943 64.1701 1.16 64.1729L18.6616 64.173C18.8532 64.1717 19.0409 64.1192 19.2053 64.0209C19.3871 63.9189 19.5397 63.7722 19.6488 63.5946C19.7578 63.4169 19.8197 63.2144 19.8284 63.0062V57.1723H50.1647V63.0062C50.1734 63.2144 50.2352 63.417 50.3442 63.5946C50.4533 63.7722 50.606 63.919 50.7878 64.0209C50.9522 64.1192 51.1399 64.1717 51.3315 64.173H68.8332C69.0433 64.1702 69.2488 64.1112 69.4283 64.0021C69.6078 63.8929 69.7547 63.7376 69.8539 63.5524C69.953 63.3672 70.0006 63.1588 69.9919 62.9489C69.9831 62.739 69.9182 62.5353 69.804 62.359L65.5682 56.0055ZM61.2491 47.838H59.499V45.5045C59.4976 44.2671 59.0055 43.0807 58.1305 42.2058C57.2556 41.3308 56.0692 40.8387 54.8318 40.8373H48.2684C49.5348 40.022 50.9966 39.5612 52.5016 39.5029C54.0066 39.4446 55.4997 39.791 56.8253 40.5059C58.1509 41.2208 59.2606 42.2782 60.0386 43.5678C60.8167 44.8573 61.2347 46.332 61.2491 47.838ZM58.597 31.3971C58.3564 38.9672 47.3812 38.9649 47.1417 31.397C47.3824 23.8276 58.3575 23.8288 58.597 31.3971ZM37.595 8.0615C37.8355 0.491668 48.8115 0.493442 49.0508 8.06164C48.8104 15.6314 37.8343 15.6296 37.595 8.0615ZM43.3275 16.1253C45.3637 16.1285 47.3292 16.8728 48.857 18.219C50.3847 19.5652 51.3703 21.4215 51.6297 23.4412C50.0338 23.7024 48.5529 24.4366 47.3788 25.5488C46.2047 26.661 45.3914 28.1 45.0442 29.6795C44.697 31.259 44.8318 32.9064 45.4312 34.4085C46.0307 35.9105 47.0671 37.1981 48.4064 38.1046C47.0201 38.7427 45.7896 39.6752 44.8005 40.8373H44.4232C44.218 38.9973 43.5401 37.2417 42.4555 35.7413C41.3709 34.2408 39.9164 33.0466 38.2336 32.2747C39.3867 31.4962 40.3197 30.4337 40.9425 29.1896C41.5653 27.9454 41.8569 26.5618 41.7892 25.1722C41.7215 23.7825 41.2967 22.4338 40.5559 21.2561C39.8151 20.0785 38.7832 19.1117 37.5599 18.449C39.1147 16.9656 41.1785 16.134 43.3275 16.1253ZM42.0652 40.8373H25.4885C25.7794 38.8469 26.777 37.0276 28.2989 35.712C29.8207 34.3965 31.7652 33.6725 33.7768 33.6725C35.7885 33.6725 37.7329 34.3965 39.2548 35.712C40.7766 37.0276 41.7742 38.8469 42.0652 40.8373ZM33.7768 19.8353C41.3466 20.0758 41.3448 31.0517 33.7766 31.2912C26.207 31.0506 26.2087 20.0746 33.7768 19.8353ZM18.5027 8.0615C18.7432 0.491949 29.7184 0.493162 29.958 8.06164C29.7173 15.6316 18.7421 15.6293 18.5027 8.0615ZM24.2272 16.1253C26.3798 16.1183 28.4504 16.951 29.9988 18.4465C28.7745 19.1085 27.7417 20.075 26.9999 21.2527C26.2582 22.4303 25.8327 23.7793 25.7644 25.1694C25.6962 26.5595 25.9876 27.9437 26.6104 29.1883C27.2332 30.433 28.1664 31.496 29.3199 32.2747C27.6371 33.0466 26.1826 34.2408 25.098 35.7413C24.0134 37.2417 23.3356 38.9973 23.1304 40.8373H21.6923C20.7032 39.6752 19.4727 38.7427 18.0864 38.1046C19.352 37.2477 20.3489 36.0496 20.9615 34.6493C21.5741 33.2489 21.7773 31.7037 21.5476 30.1926C21.318 28.6815 20.6648 27.2664 19.6638 26.1113C18.6628 24.9562 17.3549 24.1085 15.8918 23.6663C16.1017 21.6006 17.0701 19.6862 18.6097 18.2933C20.1494 16.9004 22.1509 16.1279 24.2272 16.1253ZM7.89573 31.3971C8.13636 23.827 19.1116 23.8294 19.351 31.3973C19.1104 38.9667 8.13523 38.9655 7.89573 31.3971ZM13.6214 39.4609C15.2579 39.4558 16.8593 39.9347 18.2244 40.8373H15.1613C13.9239 40.8387 12.7375 41.3308 11.8626 42.2058C10.9876 43.0807 10.4955 44.2671 10.4941 45.5045V47.838H5.24363C5.24624 45.617 6.12974 43.4876 7.70031 41.9172C9.27089 40.3467 11.4003 39.4633 13.6214 39.4609ZM3.3402 61.8394L6.79778 56.6527C6.92566 56.4611 6.99391 56.2359 6.99391 56.0055C6.99391 55.7751 6.92566 55.5499 6.79778 55.3583L3.3402 50.1716H10.4941C10.4604 51.2174 10.4874 52.2643 10.5752 53.3069C10.5115 53.4833 10.492 53.6726 10.5186 53.8583C10.5452 54.0439 10.617 54.2202 10.7277 54.3715L16.3286 61.8394H3.3402ZM17.4948 59.5066L15.7441 57.1723H17.4948V59.5066ZM15.1613 54.8387C14.5426 54.838 13.9494 54.5919 13.512 54.1544C13.0745 53.717 12.8284 53.1238 12.8277 52.5051V45.5045C12.8284 44.8858 13.0745 44.2926 13.512 43.8552C13.9494 43.4177 14.5426 43.1716 15.1613 43.1709H54.8318C55.4505 43.1716 56.0437 43.4177 56.4811 43.8552C56.9186 44.2926 57.1647 44.8858 57.1654 45.5045V52.5051C57.1647 53.1238 56.9186 53.717 56.4811 54.1544C56.0437 54.5919 55.4505 54.838 54.8318 54.8387H15.1613ZM52.4983 57.1723H54.249L52.4983 59.5066V57.1723ZM53.6645 61.8394L59.2654 54.3715C59.3761 54.2202 59.4479 54.0439 59.4745 53.8582C59.5011 53.6726 59.4816 53.4833 59.4179 53.3069C59.5065 52.2643 59.5336 51.2174 59.499 50.1716H66.6529L63.1953 55.3583C63.0674 55.5499 62.9992 55.7751 62.9992 56.0055C62.9992 56.2359 63.0674 56.4611 63.1953 56.6527L66.6529 61.8394H53.6645Z" fill="black"/>
<path d="M51.3314 45.5045H18.6615C18.3551 45.509 18.0627 45.6339 17.8476 45.8523C17.6325 46.0706 17.512 46.3648 17.512 46.6713C17.512 46.9778 17.6326 47.2719 17.8477 47.4902C18.0628 47.7086 18.3551 47.8335 18.6616 47.838H51.3314C51.6379 47.8335 51.9302 47.7085 52.1453 47.4902C52.3604 47.2719 52.481 46.9777 52.481 46.6712C52.481 46.3648 52.3604 46.0706 52.1453 45.8523C51.9302 45.6339 51.6379 45.509 51.3314 45.5045ZM44.3307 50.1716H25.6622C25.3558 50.1761 25.0634 50.3011 24.8483 50.5194C24.6332 50.7377 24.5126 51.0319 24.5126 51.3384C24.5127 51.6449 24.6332 51.9391 24.8484 52.1574C25.0635 52.3757 25.3558 52.5006 25.6623 52.5051H44.3307C44.6372 52.5006 44.9295 52.3757 45.1446 52.1573C45.3597 51.939 45.4803 51.6448 45.4803 51.3384C45.4803 51.0319 45.3597 50.7377 45.1446 50.5194C44.9295 50.3011 44.6372 50.1761 44.3307 50.1716Z" fill="black"/>
</svg>
