<svg width="104" height="22" viewBox="0 0 104 22" fill="none" xmlns="http://www.w3.org/2000/svg">
<path d="M9.52376 3.20586C9.82312 2.28455 11.1265 2.28455 11.4259 3.20586L12.602 6.82575C12.7359 7.23777 13.1199 7.51673 13.5531 7.51673H17.3593C18.328 7.51673 18.7308 8.75635 17.9471 9.32575L14.8678 11.563C14.5173 11.8176 14.3707 12.269 14.5045 12.681L15.6807 16.3009C15.9801 17.2222 14.9256 17.9883 14.1419 17.4189L11.0626 15.1817C10.7121 14.9271 10.2375 14.9271 9.88704 15.1817L6.80778 17.4189C6.02406 17.9883 4.96958 17.2222 5.26893 16.3009L6.4451 12.681C6.57898 12.269 6.43232 11.8176 6.08183 11.563L3.00257 9.32575C2.21886 8.75635 2.62163 7.51673 3.59036 7.51673H7.39653C7.82976 7.51673 8.21372 7.23777 8.34759 6.82575L9.52376 3.20586Z" fill="#FFA722"/>
<path d="M51.0456 3.32449C51.3385 2.3898 52.6613 2.3898 52.9541 3.32449L54.048 6.81571C54.1787 7.23283 54.5652 7.51673 55.0023 7.51673H58.6172C59.5771 7.51673 59.9856 8.73778 59.219 9.31541L56.2326 11.5655C55.8948 11.82 55.7536 12.2596 55.8801 12.6632L57.0059 16.2564C57.2966 17.1842 56.2264 17.9391 55.4499 17.3541L52.6017 15.2081C52.2454 14.9396 51.7544 14.9396 51.3981 15.2081L48.5499 17.3541C47.7734 17.9391 46.7032 17.1842 46.9939 16.2564L48.1197 12.6632C48.2461 12.2596 48.105 11.82 47.7672 11.5655L44.7808 9.31541C44.0141 8.73778 44.4226 7.51673 45.3825 7.51673H48.9975C49.4346 7.51673 49.8211 7.23283 49.9518 6.81571L51.0456 3.32449Z" fill="#FFA722"/>
<path d="M94.7017 7.13428C94.9694 7.95821 95.7367 8.51693 96.603 8.51709H100.41L97.3306 10.7544C96.6735 11.2318 96.3743 12.0545 96.5601 12.8345L96.604 12.9897L97.7798 16.6099L94.7007 14.3726C94.0436 13.8952 93.1683 13.8651 92.4839 14.2827L92.3491 14.3726L89.27 16.6099L90.4468 12.9897C90.6976 12.2172 90.4551 11.3758 89.8462 10.854L89.7202 10.7544L86.6411 8.51709H90.4468C91.2593 8.51709 91.9854 8.02624 92.2935 7.28564L92.3491 7.13428L93.5249 3.51514L94.7017 7.13428Z" stroke="#FFA722" stroke-width="2"/>
<path d="M30.4735 3.20586C30.7728 2.28455 32.0762 2.28455 32.3756 3.20586L33.5518 6.82575C33.6856 7.23777 34.0696 7.51673 34.5028 7.51673H38.309C39.2777 7.51673 39.6805 8.75635 38.8968 9.32575L35.8175 11.563C35.467 11.8176 35.3204 12.269 35.4542 12.681L36.6304 16.3009C36.9298 17.2222 35.8753 17.9883 35.0916 17.4189L32.0123 15.1817C31.6618 14.9271 31.1872 14.9271 30.8367 15.1817L27.7575 17.4189C26.9738 17.9883 25.9193 17.2222 26.2186 16.3009L27.3948 12.681C27.5287 12.269 27.382 11.8176 27.0315 11.563L23.9523 9.32575C23.1686 8.75635 23.5713 7.51673 24.5401 7.51673H28.3462C28.7795 7.51673 29.1634 7.23777 29.2973 6.82575L30.4735 3.20586Z" fill="#FFA722"/>
<path d="M71.6246 3.20586C71.9239 2.28455 73.2274 2.28455 73.5267 3.20586L74.7029 6.82575C74.8368 7.23777 75.2207 7.51673 75.6539 7.51673H79.4601C80.4288 7.51673 80.8316 8.75635 80.0479 9.32575L76.9686 11.563C76.6181 11.8176 76.4715 12.269 76.6054 12.681L77.7815 16.3009C78.0809 17.2222 77.0264 17.9883 76.2427 17.4189L73.1634 15.1817C72.8129 14.9271 72.3384 14.9271 71.9879 15.1817L68.9086 17.4189C68.1249 17.9883 67.0704 17.2222 67.3698 16.3009L68.5459 12.681C68.6798 12.269 68.5332 11.8176 68.1827 11.563L65.1034 9.32575C64.3197 8.75635 64.7225 7.51673 65.6912 7.51673H69.4974C69.9306 7.51673 70.3145 7.23777 70.4484 6.82575L71.6246 3.20586Z" fill="#FFA722"/>
<mask id="mask0_202_1171" style="mask-type:alpha" maskUnits="userSpaceOnUse" x="85" y="2" width="17" height="16">
<path d="M92.5668 2.92705C92.8662 2.00574 94.1696 2.00574 94.4689 2.92705L95.6467 6.55205C95.7806 6.96407 96.1646 7.24303 96.5978 7.24303H100.409C101.378 7.24303 101.781 8.48265 100.997 9.05205L97.9135 11.2924C97.563 11.5471 97.4164 11.9984 97.5503 12.4105L98.7281 16.0354C99.0274 16.9568 97.973 17.7229 97.1892 17.1535L94.1056 14.9131C93.7552 14.6585 93.2806 14.6585 92.9301 14.9131L89.8465 17.1535C89.0628 17.7229 88.0083 16.9568 88.3076 16.0354L89.4855 12.4105C89.6193 11.9984 89.4727 11.5471 89.1222 11.2924L86.0386 9.05205C85.2549 8.48265 85.6576 7.24303 86.6264 7.24303H90.4379C90.8711 7.24303 91.2551 6.96407 91.389 6.55205L92.5668 2.92705Z" fill="#FFA722"/>
</mask>
<g mask="url(#mask0_202_1171)">
<rect x="85.0908" y="0.411133" width="8.22134" height="18.9091" rx="1" fill="#FFA722"/>
</g>
</svg>
